<svg version="1.1" id="Layer_1" xmlns="http://www.w3.org/2000/svg" xmlns:xlink="http://www.w3.org/1999/xlink" x="0px" y="0px"
	 width="100%" viewBox="0 0 1024 1024" enable-background="new 0 0 1024 1024" xml:space="preserve">
<path fill="#000000" opacity="1.000000" stroke="none" 
	d="
M340.000061,217.695007 
	C406.646088,217.691635 472.792114,217.688644 538.938110,217.685150 
	C542.098083,217.684982 545.259094,217.535797 548.303284,218.728531 
	C552.429321,220.345139 554.704468,223.381454 555.256226,227.692963 
	C555.466248,229.334412 555.345642,231.020462 555.345642,232.686172 
	C555.347290,364.478394 555.346008,496.270599 555.342957,628.062805 
	C555.342896,629.728821 555.413269,631.402344 555.284302,633.059387 
	C554.846313,638.685608 551.946106,641.888916 546.259644,642.511719 
	C535.464844,643.693970 524.620850,642.927124 513.801514,642.939392 
	C442.493530,643.020142 371.185394,643.007385 299.877319,642.978882 
	C297.064514,642.977783 294.180359,642.817932 291.455261,642.187927 
	C286.933868,641.142578 284.389893,637.958374 283.771973,633.401978 
	C283.505280,631.435730 283.655090,629.409912 283.655029,627.411133 
	C283.650909,496.285370 283.650024,365.159607 283.651642,234.033859 
	C283.651825,221.388580 287.339813,217.703308 300.013702,217.692947 
	C313.175812,217.682190 326.337952,217.693588 340.000061,217.695007 
M509.663147,344.500061 
	C509.661652,320.007385 509.662048,295.514679 509.657837,271.022003 
	C509.656097,260.930511 507.950500,259.221283 497.681091,259.214233 
	C458.692413,259.187439 419.703766,259.178162 380.715088,259.172211 
	C366.552765,259.170044 352.390289,259.236755 338.228210,259.186279 
	C333.207886,259.168427 330.330750,261.437256 329.923096,266.466827 
	C329.614288,270.276733 329.375488,274.105133 329.374420,277.925323 
	C329.345337,382.064514 329.349518,486.203705 329.353241,590.342896 
	C329.353546,598.996948 330.920349,600.628906 339.453522,600.653015 
	C353.949554,600.694031 368.445831,600.668152 382.941986,600.668640 
	C395.649841,600.669067 395.650726,600.667969 395.651520,588.119446 
	C395.654480,541.964966 395.645966,495.810486 395.670410,449.656006 
	C395.674286,442.310303 398.648865,438.270905 405.134033,438.006805 
	C414.781250,437.613983 424.464600,437.608154 434.114136,437.953064 
	C440.250458,438.172455 443.914642,441.794220 444.262848,447.003418 
	C444.584717,451.819244 444.959259,456.665161 444.766907,461.476105 
	C443.789124,485.937469 445.397736,510.392426 444.633911,534.865417 
	C444.006012,554.984009 444.544128,575.138489 444.521729,595.277039 
	C444.517365,599.196472 446.016846,600.801880 450.229675,600.746582 
	C466.722473,600.530090 483.219788,600.669189 499.715424,600.656799 
	C508.283966,600.650330 509.662079,599.296326 509.662354,590.935303 
	C509.665039,509.123566 509.663483,427.311829 509.663147,344.500061 
z"/>
<path fill="#000000" opacity="1.000000" stroke="none" 
	d="
M705.999817,674.673218 
	C711.499207,674.673767 716.498779,674.655273 721.498169,674.678162 
	C731.612854,674.724548 736.071655,681.436523 731.735107,690.680237 
	C726.995972,700.782043 721.708740,710.637817 715.493713,719.919373 
	C677.933838,776.011230 627.205322,814.023071 560.783813,828.220703 
	C490.676239,843.206238 426.785797,827.257080 369.474609,784.505737 
	C336.641235,760.013611 311.859558,728.882019 293.927429,692.169617 
	C292.526611,689.301819 291.165131,686.466858 291.923462,683.110229 
	C293.241516,677.276245 296.603821,674.672974 303.042389,674.672424 
	C356.536713,674.667969 410.031006,674.673889 463.525330,674.674255 
	C544.183533,674.674866 624.841675,674.673462 705.999817,674.673218 
M373.329559,726.161377 
	C406.646362,761.939941 447.485931,783.291809 496.133514,788.393921 
	C523.268616,791.239746 549.891418,787.206116 575.552246,777.549316 
	C604.434753,766.680237 629.304688,749.835571 650.445312,727.433960 
	C652.293579,725.475403 655.159546,723.501953 654.001709,720.299438 
	C652.589600,716.393982 648.829224,717.380066 645.773560,717.368469 
	C631.612549,717.314636 617.451233,717.340759 603.290039,717.341125 
	C528.152222,717.342896 453.014465,717.342773 377.876678,717.359924 
	C375.259918,717.360535 372.367920,716.860718 370.878845,719.927795 
	C369.653107,722.452454 371.590851,723.936707 373.329559,726.161377 
z"/>
<path fill="#000000" opacity="1.000000" stroke="none" 
	d="
M604.667358,388.999939 
	C604.670837,335.522461 604.671875,282.545013 604.680115,229.567551 
	C604.681519,220.445023 606.952026,217.984299 616.101501,217.771469 
	C624.093994,217.585526 632.093994,217.661621 640.090149,217.712463 
	C649.141418,217.769989 653.215820,221.800415 653.232849,230.886810 
	C653.281982,257.208832 653.244873,283.530975 653.244629,309.853088 
	C653.243835,415.641296 653.244446,521.429504 653.242065,627.217712 
	C653.242065,628.883362 653.310547,630.557129 653.177124,632.213318 
	C652.621033,639.111389 648.902466,643.025940 642.021484,643.218811 
	C633.199402,643.466125 624.357544,643.478943 615.537476,643.188232 
	C607.367004,642.918884 604.675049,639.542908 604.673523,630.397949 
	C604.662170,560.261169 604.669128,490.124329 604.670105,419.987518 
	C604.670227,409.824982 604.668335,399.662476 604.667358,388.999939 
z"/>
<path fill="#000000" opacity="1.000000" stroke="none" 
	d="
M740.009888,520.000000 
	C740.028442,555.981873 740.047363,591.463806 740.059814,626.945679 
	C740.060425,628.777100 740.133362,630.621216 739.953308,632.437683 
	C739.270752,639.322021 735.961121,642.915955 729.128479,643.164978 
	C720.145447,643.492371 711.131836,643.510132 702.149780,643.172546 
	C694.786072,642.895630 691.653992,638.729980 691.653687,630.306458 
	C691.648621,511.865479 691.650391,393.424500 691.650696,274.983521 
	C691.650757,260.157593 691.622986,245.331558 691.663269,230.505722 
	C691.687866,221.465012 695.370056,217.786575 704.410278,217.724075 
	C712.239380,217.669937 720.069702,217.638382 727.898254,217.717697 
	C735.868591,217.798447 738.857178,220.308121 739.519714,228.177505 
	C740.035339,234.301605 739.986084,240.483093 739.987854,246.639130 
	C740.014587,337.592743 740.007812,428.546387 740.009888,520.000000 
z"/>
<path fill="#000000" opacity="1.000000" stroke="none" 
	d="
M413.879730,306.640503 
	C435.149170,303.903137 455.378296,315.940765 462.783508,335.463287 
	C470.038849,354.590698 462.980377,376.192993 445.703644,387.735687 
	C428.211212,399.422485 404.071808,397.511475 389.033997,382.993134 
	C376.048584,370.456207 371.595581,355.162903 376.877289,337.910400 
	C382.344666,320.051483 395.102997,309.878296 413.879730,306.640503 
z"/>
</svg>